{
	"asset":{
		"generator":"Khronos glTF Blender I/O v4.3.47",
		"version":"2.0"
	},
	"scene":0,
	"scenes":[
		{
			"name":"Scene",
			"nodes":[
				0
			]
		}
	],
	"nodes":[
		{
			"mesh":0,
			"name":"Low1_Jp004_Low"
		}
	],
	"materials":[
		{
			"doubleSided":true,
			"name":"lambert1",
			"pbrMetallicRoughness":{
				"baseColorTexture":{
					"index":0
				},
				"metallicRoughnessTexture":{
					"index":1
				}
			}
		}
	],
	"meshes":[
		{
			"name":"\u7f51\u683c",
			"primitives":[
				{
					"attributes":{
						"POSITION":0,
						"NORMAL":1,
						"TEXCOORD_0":2
					},
					"indices":3,
					"material":0
				}
			]
		}
	],
	"textures":[
		{
			"sampler":0,
			"source":0
		},
		{
			"sampler":0,
			"source":1
		}
	],
	"images":[
		{
			"mimeType":"image/png",
			"name":"file1",
			"uri":"file1.png"
		},
		{
			"mimeType":"image/png",
			"name":"liangdu-zaodu",
			"uri":"liangdu-zaodu.png"
		}
	],
	"accessors":[
		{
			"bufferView":0,
			"componentType":5126,
			"count":2343,
			"max":[
				0.04016318917274475,
				0.07913868874311447,
				0.02883080765604973
			],
			"min":[
				-0.04016318917274475,
				-0.07913868874311447,
				-0.01888188347220421
			],
			"type":"VEC3"
		},
		{
			"bufferView":1,
			"componentType":5126,
			"count":2343,
			"type":"VEC3"
		},
		{
			"bufferView":2,
			"componentType":5126,
			"count":2343,
			"type":"VEC2"
		},
		{
			"bufferView":3,
			"componentType":5123,
			"count":12504,
			"type":"SCALAR"
		}
	],
	"bufferViews":[
		{
			"buffer":0,
			"byteLength":28116,
			"byteOffset":0,
			"target":34962
		},
		{
			"buffer":0,
			"byteLength":28116,
			"byteOffset":28116,
			"target":34962
		},
		{
			"buffer":0,
			"byteLength":18744,
			"byteOffset":56232,
			"target":34962
		},
		{
			"buffer":0,
			"byteLength":25008,
			"byteOffset":74976,
			"target":34963
		}
	],
	"samplers":[
		{
			"magFilter":9729,
			"minFilter":9987
		}
	],
	"buffers":[
		{
			"byteLength":99984,
			"uri":"Jinpai.bin"
		}
	]
}
